<svg xmlns="http://www.w3.org/2000/svg" viewBox="0 0 32 32">
  <defs>
    <linearGradient id="g" x1="0" y1="0" x2="1" y2="1">
      <stop offset="0" stop-color="#5666e6" />
      <stop offset="1" stop-color="#ec4d9a" />
    </linearGradient>
    <clipPath id="ball"><circle cx="15" cy="18" r="7.2" /></clipPath>
  </defs>
  <rect width="32" height="32" rx="8" fill="url(#g)" />
  <line x1="15" y1="8" x2="15" y2="11.4" stroke="#fff" stroke-width="1" />
  <circle cx="15" cy="7" r="1.1" fill="none" stroke="#fff" stroke-width="1" />
  <g clip-path="url(#ball)">
    <rect x="7" y="10" width="16" height="16" fill="#fff" />
    <g fill="#cdd5f7">
      <rect x="11" y="14" width="3.6" height="3.6" />
      <rect x="14.6" y="17.6" width="3.6" height="3.6" />
      <rect x="7.4" y="17.6" width="3.6" height="3.6" />
      <rect x="14.6" y="10.4" width="3.6" height="3.6" />
    </g>
    <g stroke="#9fb0f0" stroke-width="0.7">
      <line x1="7" y1="14" x2="23" y2="14" />
      <line x1="7" y1="17.6" x2="23" y2="17.6" />
      <line x1="7" y1="21.2" x2="23" y2="21.2" />
      <line x1="11" y1="10" x2="11" y2="26" />
      <line x1="14.6" y1="10" x2="14.6" y2="26" />
      <line x1="18.2" y1="10" x2="18.2" y2="26" />
    </g>
  </g>
  <path d="M25 9 l0.55 1.5 1.5 0.55 -1.5 0.55 -0.55 1.5 -0.55 -1.5 -1.5 -0.55 1.5 -0.55z" fill="#fff" />
  <path d="M25.5 19 l0.4 1.1 1.1 0.4 -1.1 0.4 -0.4 1.1 -0.4 -1.1 -1.1 -0.4 1.1 -0.4z" fill="#fff" />
</svg>
